<?xml version="1.0" encoding="utf-8"?>
<!-- Generator: Adobe Illustrator 20.1.0, SVG Export Plug-In . SVG Version: 6.00 Build 0)  -->
<svg version="1.1" id="Layer_1" xmlns="http://www.w3.org/2000/svg" xmlns:xlink="http://www.w3.org/1999/xlink" x="0px" y="0px"
	 viewBox="0 0 2463.2 768" style="enable-background:new 0 0 2463.2 768;" xml:space="preserve">
<style type="text/css">
	.st0{display:none;}
	.st1{opacity:0.8;fill:#00BAFF;enable-background:new    ;}
	.st2{opacity:0.8;}
	.st3{fill:#69B9D9;}
	.st4{opacity:0.95;fill:#36499C;enable-background:new    ;}
	.st5{fill:#8CDCFA;}
	.st6{font-family:'Raleway-Light';}
	.st7{font-size:217.2412px;}
	.st8{font-family:'Raleway-Medium';}
</style>
<g id="Layer_1_1_" class="st0">
</g>
<g id="rounded_x2A__triangles">
	<path id="rounded_top_left_2_" class="st1" d="M165.2,190l156-82c0,0,11-8,14,6s26,247,26,247l-196-157
		C165.2,204,153.2,196,165.2,190z"/>
	<g id="rounded_bottom_left_1_" class="st2">
		<path class="st3" d="M29.2,294.4c0,0-17.5-1.9-9.7,14.8c7.7,16.8,177.4,389,177.4,389s6.5,12.2,11.9,0
			C214.2,686,396.2,302,396.2,302s1-11.3-8-7.7L29.2,294.4z"/>
	</g>
	<g id="rounded_top_right">
		<path class="st4" d="M345.2,353l254-1c0,0,13.7-0.6,8.4-10.8C602.2,331,462,67,462,67s-7.2-7-10.5,0S337.2,339,337.2,339
			S329.2,353,345.2,353z"/>
	</g>
	<g id="rounded_bottom_left" class="st2">
		<path class="st5" d="M396.3,501.1l88-55.4c0,0,6.1-2.7,0-7.7S361.2,334.8,361.2,334.8s-6-2.8-4.5,3.2s33,160.5,33,160.5
			S390.4,505.3,396.3,501.1z"/>
	</g>
</g>
<g id="text">
	<text transform="matrix(1 0 0 1 645.3423 519.8174)" class="st6 st7">THERMO</text>
	<text transform="matrix(1 0 0 1 1565.15 519.8174)" class="st8 st7">SECURE</text>
</g>
</svg>
